<?xml version="1.0" encoding="UTF-8" standalone="no"?>
<!DOCTYPE svg PUBLIC "-//W3C//DTD SVG 1.1//EN"
 "http://www.w3.org/Graphics/SVG/1.1/DTD/svg11.dtd">
<!-- Generated by graphviz version 9.0.0 (20230911.1827)
 -->
<!-- Pages: 1 -->
<svg width="494pt" height="404pt"
 viewBox="0.00 0.00 494.00 404.00" xmlns="http://www.w3.org/2000/svg" xmlns:xlink="http://www.w3.org/1999/xlink">
<g id="graph0" class="graph" transform="scale(1 1) rotate(0) translate(4 400)">
<polygon fill="white" stroke="none" points="-4,4 -4,-400 490,-400 490,4 -4,4"/>
<!-- 0 -->
<g id="node1" class="node">
<title>0</title>
<ellipse fill="none" stroke="black" cx="135" cy="-378" rx="27" ry="18"/>
<text text-anchor="middle" x="135" y="-372.57" font-family="Times New Roman,serif" font-size="14.00">E</text>
</g>
<!-- 2 -->
<g id="node2" class="node">
<title>2</title>
<ellipse fill="none" stroke="black" cx="99" cy="-306" rx="27" ry="18"/>
<text text-anchor="middle" x="99" y="-300.57" font-family="Times New Roman,serif" font-size="14.00">T</text>
</g>
<!-- 0&#45;&gt;2 -->
<g id="edge1" class="edge">
<title>0&#45;&gt;2</title>
<path fill="none" stroke="black" d="M126.65,-360.76C122.42,-352.55 117.19,-342.37 112.42,-333.09"/>
<polygon fill="black" stroke="black" points="115.68,-331.79 108,-324.49 109.46,-334.99 115.68,-331.79"/>
</g>
<!-- 10 -->
<g id="node6" class="node">
<title>10</title>
<ellipse fill="none" stroke="black" cx="207" cy="-306" rx="27" ry="18"/>
<text text-anchor="middle" x="207" y="-300.57" font-family="Times New Roman,serif" font-size="14.00">E&#39;</text>
</g>
<!-- 0&#45;&gt;10 -->
<g id="edge5" class="edge">
<title>0&#45;&gt;10</title>
<path fill="none" stroke="black" d="M149.92,-362.5C159.77,-352.92 172.86,-340.19 184.03,-329.34"/>
<polygon fill="black" stroke="black" points="186.29,-332.02 191.02,-322.54 181.41,-327 186.29,-332.02"/>
</g>
<!-- 4 -->
<g id="node3" class="node">
<title>4</title>
<ellipse fill="none" stroke="black" cx="27" cy="-234" rx="27" ry="18"/>
<text text-anchor="middle" x="27" y="-228.57" font-family="Times New Roman,serif" font-size="14.00">F</text>
</g>
<!-- 2&#45;&gt;4 -->
<g id="edge2" class="edge">
<title>2&#45;&gt;4</title>
<path fill="none" stroke="black" d="M84.08,-290.5C74.23,-280.92 61.14,-268.19 49.97,-257.34"/>
<polygon fill="black" stroke="black" points="52.59,-255 42.98,-250.54 47.71,-260.02 52.59,-255"/>
</g>
<!-- 8 -->
<g id="node5" class="node">
<title>8</title>
<ellipse fill="none" stroke="black" cx="99" cy="-234" rx="27" ry="18"/>
<text text-anchor="middle" x="99" y="-228.57" font-family="Times New Roman,serif" font-size="14.00">T&#39;</text>
</g>
<!-- 2&#45;&gt;8 -->
<g id="edge4" class="edge">
<title>2&#45;&gt;8</title>
<path fill="none" stroke="black" d="M99,-287.7C99,-280.41 99,-271.73 99,-263.54"/>
<polygon fill="black" stroke="black" points="102.5,-263.62 99,-253.62 95.5,-263.62 102.5,-263.62"/>
</g>
<!-- 6 -->
<g id="node4" class="node">
<title>6</title>
<ellipse fill="none" stroke="black" cx="27" cy="-162" rx="27" ry="18"/>
<text text-anchor="middle" x="27" y="-156.57" font-family="Times New Roman,serif" font-size="14.00">4</text>
</g>
<!-- 4&#45;&gt;6 -->
<g id="edge3" class="edge">
<title>4&#45;&gt;6</title>
<path fill="none" stroke="black" d="M27,-215.7C27,-208.41 27,-199.73 27,-191.54"/>
<polygon fill="black" stroke="black" points="30.5,-191.62 27,-181.62 23.5,-191.62 30.5,-191.62"/>
</g>
<!-- 12 -->
<g id="node7" class="node">
<title>12</title>
<ellipse fill="none" stroke="black" cx="171" cy="-234" rx="27" ry="18"/>
<text text-anchor="middle" x="171" y="-228.57" font-family="Times New Roman,serif" font-size="14.00">&#45;</text>
</g>
<!-- 10&#45;&gt;12 -->
<g id="edge6" class="edge">
<title>10&#45;&gt;12</title>
<path fill="none" stroke="black" d="M198.65,-288.76C194.42,-280.55 189.19,-270.37 184.42,-261.09"/>
<polygon fill="black" stroke="black" points="187.68,-259.79 180,-252.49 181.46,-262.99 187.68,-259.79"/>
</g>
<!-- 14 -->
<g id="node8" class="node">
<title>14</title>
<ellipse fill="none" stroke="black" cx="243" cy="-234" rx="27" ry="18"/>
<text text-anchor="middle" x="243" y="-228.57" font-family="Times New Roman,serif" font-size="14.00">T</text>
</g>
<!-- 10&#45;&gt;14 -->
<g id="edge7" class="edge">
<title>10&#45;&gt;14</title>
<path fill="none" stroke="black" d="M215.35,-288.76C219.58,-280.55 224.81,-270.37 229.58,-261.09"/>
<polygon fill="black" stroke="black" points="232.54,-262.99 234,-252.49 226.32,-259.79 232.54,-262.99"/>
</g>
<!-- 22 -->
<g id="node12" class="node">
<title>22</title>
<ellipse fill="none" stroke="black" cx="351" cy="-234" rx="27" ry="18"/>
<text text-anchor="middle" x="351" y="-228.57" font-family="Times New Roman,serif" font-size="14.00">E&#39;</text>
</g>
<!-- 10&#45;&gt;22 -->
<g id="edge11" class="edge">
<title>10&#45;&gt;22</title>
<path fill="none" stroke="black" d="M228.56,-294.52C252.66,-282.8 291.92,-263.72 319.47,-250.32"/>
<polygon fill="black" stroke="black" points="320.94,-253.5 328.4,-245.98 317.88,-247.21 320.94,-253.5"/>
</g>
<!-- 16 -->
<g id="node9" class="node">
<title>16</title>
<ellipse fill="none" stroke="black" cx="171" cy="-162" rx="27" ry="18"/>
<text text-anchor="middle" x="171" y="-156.57" font-family="Times New Roman,serif" font-size="14.00">F</text>
</g>
<!-- 14&#45;&gt;16 -->
<g id="edge8" class="edge">
<title>14&#45;&gt;16</title>
<path fill="none" stroke="black" d="M228.08,-218.5C218.23,-208.92 205.14,-196.19 193.97,-185.34"/>
<polygon fill="black" stroke="black" points="196.59,-183 186.98,-178.54 191.71,-188.02 196.59,-183"/>
</g>
<!-- 20 -->
<g id="node11" class="node">
<title>20</title>
<ellipse fill="none" stroke="black" cx="243" cy="-162" rx="27" ry="18"/>
<text text-anchor="middle" x="243" y="-156.57" font-family="Times New Roman,serif" font-size="14.00">T&#39;</text>
</g>
<!-- 14&#45;&gt;20 -->
<g id="edge10" class="edge">
<title>14&#45;&gt;20</title>
<path fill="none" stroke="black" d="M243,-215.7C243,-208.41 243,-199.73 243,-191.54"/>
<polygon fill="black" stroke="black" points="246.5,-191.62 243,-181.62 239.5,-191.62 246.5,-191.62"/>
</g>
<!-- 18 -->
<g id="node10" class="node">
<title>18</title>
<ellipse fill="none" stroke="black" cx="171" cy="-90" rx="27" ry="18"/>
<text text-anchor="middle" x="171" y="-84.58" font-family="Times New Roman,serif" font-size="14.00">4</text>
</g>
<!-- 16&#45;&gt;18 -->
<g id="edge9" class="edge">
<title>16&#45;&gt;18</title>
<path fill="none" stroke="black" d="M171,-143.7C171,-136.41 171,-127.73 171,-119.54"/>
<polygon fill="black" stroke="black" points="174.5,-119.62 171,-109.62 167.5,-119.62 174.5,-119.62"/>
</g>
<!-- 24 -->
<g id="node13" class="node">
<title>24</title>
<ellipse fill="none" stroke="black" cx="315" cy="-162" rx="27" ry="18"/>
<text text-anchor="middle" x="315" y="-156.57" font-family="Times New Roman,serif" font-size="14.00">&#45;</text>
</g>
<!-- 22&#45;&gt;24 -->
<g id="edge12" class="edge">
<title>22&#45;&gt;24</title>
<path fill="none" stroke="black" d="M342.65,-216.76C338.42,-208.55 333.19,-198.37 328.42,-189.09"/>
<polygon fill="black" stroke="black" points="331.68,-187.79 324,-180.49 325.46,-190.99 331.68,-187.79"/>
</g>
<!-- 26 -->
<g id="node14" class="node">
<title>26</title>
<ellipse fill="none" stroke="black" cx="387" cy="-162" rx="27" ry="18"/>
<text text-anchor="middle" x="387" y="-156.57" font-family="Times New Roman,serif" font-size="14.00">T</text>
</g>
<!-- 22&#45;&gt;26 -->
<g id="edge13" class="edge">
<title>22&#45;&gt;26</title>
<path fill="none" stroke="black" d="M359.35,-216.76C363.58,-208.55 368.81,-198.37 373.58,-189.09"/>
<polygon fill="black" stroke="black" points="376.54,-190.99 378,-180.49 370.32,-187.79 376.54,-190.99"/>
</g>
<!-- 34 -->
<g id="node18" class="node">
<title>34</title>
<ellipse fill="none" stroke="black" cx="459" cy="-162" rx="27" ry="18"/>
<text text-anchor="middle" x="459" y="-156.57" font-family="Times New Roman,serif" font-size="14.00">E&#39;</text>
</g>
<!-- 22&#45;&gt;34 -->
<g id="edge17" class="edge">
<title>22&#45;&gt;34</title>
<path fill="none" stroke="black" d="M369.81,-220.81C386.59,-209.93 411.39,-193.86 430.59,-181.42"/>
<polygon fill="black" stroke="black" points="432.28,-184.49 438.77,-176.11 428.48,-178.61 432.28,-184.49"/>
</g>
<!-- 28 -->
<g id="node15" class="node">
<title>28</title>
<ellipse fill="none" stroke="black" cx="351" cy="-90" rx="27" ry="18"/>
<text text-anchor="middle" x="351" y="-84.58" font-family="Times New Roman,serif" font-size="14.00">F</text>
</g>
<!-- 26&#45;&gt;28 -->
<g id="edge14" class="edge">
<title>26&#45;&gt;28</title>
<path fill="none" stroke="black" d="M378.65,-144.76C374.42,-136.55 369.19,-126.37 364.42,-117.09"/>
<polygon fill="black" stroke="black" points="367.68,-115.79 360,-108.49 361.46,-118.99 367.68,-115.79"/>
</g>
<!-- 32 -->
<g id="node17" class="node">
<title>32</title>
<ellipse fill="none" stroke="black" cx="423" cy="-90" rx="27" ry="18"/>
<text text-anchor="middle" x="423" y="-84.58" font-family="Times New Roman,serif" font-size="14.00">T&#39;</text>
</g>
<!-- 26&#45;&gt;32 -->
<g id="edge16" class="edge">
<title>26&#45;&gt;32</title>
<path fill="none" stroke="black" d="M395.35,-144.76C399.58,-136.55 404.81,-126.37 409.58,-117.09"/>
<polygon fill="black" stroke="black" points="412.54,-118.99 414,-108.49 406.32,-115.79 412.54,-118.99"/>
</g>
<!-- 30 -->
<g id="node16" class="node">
<title>30</title>
<ellipse fill="none" stroke="black" cx="351" cy="-18" rx="27" ry="18"/>
<text text-anchor="middle" x="351" y="-12.57" font-family="Times New Roman,serif" font-size="14.00">8</text>
</g>
<!-- 28&#45;&gt;30 -->
<g id="edge15" class="edge">
<title>28&#45;&gt;30</title>
<path fill="none" stroke="black" d="M351,-71.7C351,-64.41 351,-55.73 351,-47.54"/>
<polygon fill="black" stroke="black" points="354.5,-47.62 351,-37.62 347.5,-47.62 354.5,-47.62"/>
</g>
</g>
</svg>
